<?xml version="1.0" encoding="UTF-8" standalone="no"?>
<svg version="1.1" viewBox="0 0 746.71147 773.18325" id="svg39" width="179.21075" height="185.56398"
   xmlns="http://www.w3.org/2000/svg" xmlns:svg="http://www.w3.org/2000/svg">
   <defs id="defs1">
      <style id="style1">
         .cls-1 {
            /* fill: #0e305e; */
            fill: hsl(var(--logo-main-dark));
         }

         .cls-2 {
            /* fill: #397fbd; */
            fill: hsl(var(--logo-main));
         }

         .cls-3 {
            /* fill: #fdfefd; */
            fill: hsl(var(--logo-background));
         }

         .cls-4 {
            /* fill: #241e1e; */
            fill: hsl(var(--logo-outline));
         }

         .cls-5 {
            /* fill: #addaed; */
            fill: hsl(var(--logo-main-light))
         }
      </style>
   </defs>
   <!-- Generator: Adobe Illustrator 28.7.1, SVG Export Plug-In . SVG Version: 1.2.0 Build 142)  -->
   <g id="g39" transform="translate(-517.3497,-230.85425)">
      <g id="Layer_1">
         <g id="g13">
            <path class="cls-4"
               d="m 657.4,844.7 c -3.5,-3.2 -7.3,-6.6 -11.6,-10.2 -6.1,-5.1 -10,-8.5 -11.9,-10.2 -12.7,-11.7 -24.6,-24 -35.8,-36.9 -29.7,-34.4 -51.6,-73.1 -65.6,-115.9 -16.4,-50 -19.3,-104.8 -9.6,-156.6 1.3,-6.7 2.7,-13.2 4.5,-19.5 9.2,-33.6 23.1,-64.8 41.7,-93.4 22.2,-34.2 49.7,-64.1 82.4,-89.8 6.8,-5.4 17.4,-12.6 31.6,-21.6 29.2,-18.6 60.3,-33 93.5,-43.2 10.4,-3.2 20.9,-5.9 31.5,-8.1 25.3,-5.2 50.8,-8 76.8,-8.4 32.9,-0.5 65.3,3.1 97.1,10.7 36.6,8.8 70.3,21.9 101.3,39.2 38.4,21.5 72.4,49.5 101.2,83.4 19.4,22.9 35.9,48.3 49.4,76.3 7.7,16.1 13.8,32.2 18.3,48.4 9.6,34.8 13.4,70.1 11.3,105.8 -2.1,35.7 -10.5,71.1 -24.8,104.3 -28.5,65.9 -73.2,118.2 -134,156.9 -66.3,42.1 -145.4,62.7 -224.2,61.6 -2.7,0 -11.8,-0.5 -27.2,-1.4 -2,-0.1 -4.5,0 -6.6,1.1 -7.8,3.9 -14.9,7.3 -21.3,10.2 -16.9,7.7 -33.9,15.7 -51,24.1 -5.4,2.7 -11.5,5.6 -18,8.7 -22.4,10.7 -52.5,24.9 -90.4,42.8 -2.1,1 -4.8,1.3 -8.3,0.8 -2.6,-0.3 -5.1,-1.3 -7.5,-3 -4.7,-3.3 -7.7,-7.8 -9,-13.6 -0.3,-1.3 -0.3,-3 0,-5.2 3.9,-29.7 9.5,-74.9 16.8,-135.8 0,-0.6 -0.1,-1.1 -0.6,-1.5 z m -106.1,-317 c -1.5,7.5 -2.5,15.1 -3.1,22.8 -2.6,32.1 0,63.7 7.5,94.9 1.5,6.4 3.3,12.6 5.4,18.7 2.2,6.5 4.5,12.5 6.9,18.1 7.6,17.7 16.7,35 27.1,51.8 8.1,13 18.1,25.8 30,38.5 12.6,13.6 26.1,26.3 40.3,38.2 2.1,1.8 10.1,8 23.9,18.7 0.3,0.2 0.4,0.5 0.4,0.8 0,1.4 0,2.9 -0.1,4.4 -2.3,19.4 -3.6,32.6 -6,49.6 -2,14.4 -3.7,31.4 -6,48.5 -1.4,10.5 -2.7,21.4 -3.9,32.7 0,0.1 0,0.3 0.2,0.3 0,0 0.1,0 0.2,0 18.6,-9 37.7,-18 57.2,-27 3,-1.4 9,-4.3 18,-8.6 35.9,-17.4 67.3,-32.8 94.1,-46.2 0.9,-0.4 1.8,-0.6 2.8,-0.5 8.9,0.6 16.7,1.1 23.5,1.5 30.5,1.6 61.2,-0.3 92.2,-5.7 19.7,-3.4 38.6,-8.4 56.6,-15.1 25.8,-9.5 50.4,-21.8 74,-36.8 13.7,-8.7 27.2,-19.2 40.5,-31.5 14.4,-13.2 27.5,-27.4 39.3,-42.5 2.5,-3.2 5,-6.5 7.4,-9.7 3.5,-4.8 6.8,-9.6 10,-14.6 12.3,-19.6 22,-40.3 29.1,-62.1 2.1,-6.6 4,-12.9 5.7,-19.2 3.7,-14 6.3,-28.9 8,-44.6 2.6,-25.7 2,-50.5 -2,-74.5 -2.9,-17.1 -7.4,-33.7 -13.5,-49.9 -19.3,-51.2 -49.6,-94.7 -90.9,-130.5 -27.2,-23.6 -57.7,-42.7 -91.5,-57.2 -33.3,-14.3 -67.4,-23.3 -102.1,-27 -31.5,-3.4 -61.9,-3.1 -91.3,0.7 -55,7.2 -105.8,26.6 -152.7,58.1 -33.1,22.3 -60.9,49 -83.4,80.1 -2.5,3.5 -5.1,7.2 -7.7,11.2 -3.8,5.7 -6.2,9.5 -7.4,11.4 -18.9,31.7 -31.8,65.8 -38.6,102.1 z"
               id="path1" />
            <path class="cls-4"
               d="m 1098.2,724.4 c -2.2,2.6 -4.3,5.4 -6.6,7.7 -6.4,6.5 -13.2,11.3 -20.2,14.5 -20.3,9 -42.5,12.6 -66.6,10.8 -17.5,-1.3 -38.2,-3.3 -62,-5.9 -15.4,-1.7 -32.8,-3.2 -45.2,-3.4 -6.4,0 -15.3,0.4 -26.6,1.4 -5.3,0.5 -11.9,1.3 -19.8,2.6 -19.6,3.1 -30.8,4.8 -33.5,5.1 -14.6,1.9 -28.6,3.1 -41.8,3.7 -7.1,0.3 -15.5,0.2 -25.2,-0.5 -10.7,-0.7 -20.7,-2.9 -29.9,-6.5 -13.8,-5.3 -25.6,-13.8 -35.5,-25.4 -3.5,-4.4 -5.9,-8.2 -7.5,-11.2 -7.2,-14.1 -10.9,-28.8 -11,-44 -0.1,-10.6 1.9,-21.5 6.1,-32.8 7,-18.8 18.8,-33.4 35.5,-43.8 10.3,-6.5 22,-11.6 34.9,-15.3 0.4,-0.1 0.8,-0.2 1.3,-0.2 0.6,0 0.9,0 1,0 0.3,0 0.4,-0.2 0.2,-0.5 -12.8,-17.5 -16.5,-36.8 -10.9,-57.9 3.9,-14.6 11.3,-27 22.5,-37.3 7.3,-6.7 15.2,-12.3 23.8,-16.9 6,-3.2 12.6,-6.3 19.8,-9.2 9.4,-3.9 20.8,-12.7 25.7,-21.9 4.9,-9.2 7.1,-20.2 5.8,-30.9 -0.9,-7.1 -2.4,-14.2 -4.5,-21.6 -2.8,-10 -4.3,-15 -4.3,-15.1 -0.4,-1.4 -0.9,-3.8 -1.6,-7.3 -0.8,-4.3 0,-8.2 2.5,-11.6 4.2,-5.9 10.6,-8 17.9,-9.2 10.8,-1.7 21.3,0.2 31.8,3.3 19.3,5.5 37,13.8 53,24.7 12.2,8.3 22.4,17.2 30.8,26.6 6.7,7.6 11.8,15.9 15.4,24.8 2.1,5.3 3.4,11.5 3.1,17.6 -0.4,9.4 -3,18.2 -7.8,26.5 0,0.1 0,0.3 0,0.4 0,0 0,0 0.1,0 14.1,1.5 27.9,5.4 41.4,11.5 15.3,7 26.6,18 34.1,33.1 4.7,9.5 7.1,19.7 7.2,30.6 0.1,12.4 -5,25.7 -11.8,36 -0.2,0.3 -0.1,0.5 0.2,0.6 29.4,9.6 49.9,28.1 61.6,55.4 5.2,12.1 8.3,26.4 9.2,40 1.2,17.8 -2.2,36.7 -12.5,51.6 z M 841.9,386.8 c 0.3,1.9 0.7,4 1.2,6.1 0.6,2.7 1,4.8 1.2,6.1 2.7,20 -1.8,38.2 -13.6,54.4 0,0.1 0,0.3 0,0.4 0,0 0.1,0 0.2,0 13.2,-1.5 25.6,1.4 37.3,8.6 0.4,0.3 0.6,0.6 0.4,1 -0.1,0.2 -0.4,0.4 -0.6,0.4 -6.1,-0.8 -11.5,-1.3 -16,-1.5 -9.3,-0.5 -18.7,0.2 -28.2,2.1 -3.4,0.7 -6,1.4 -7.8,2.2 -5,2.1 -13,5.8 -24.1,11.2 -11.1,5.3 -21.1,12.4 -30,21.2 -3.7,3.7 -7,8.3 -9.8,13.7 -5.8,11.1 -8,22.9 -6.5,35.2 0,0.8 0.5,1.9 1.3,3.4 2.1,10 6.3,18.6 12.6,25.6 3.9,4.3 9.3,7.3 14.6,9.8 18.5,8.9 38.2,14.3 59.1,16 0.6,0 0.8,0.4 0.7,1.1 -1.9,0 -3.8,0 -5.7,0 -2.6,0.2 -4.4,0.3 -5.6,0.2 -14.9,-0.5 -29.9,-2.4 -45.1,-5.6 -6.3,-1.3 -11.8,-3.5 -17.9,-5.5 -0.7,-0.2 -1.5,-0.3 -2.4,-0.2 -12.6,2 -23.9,5.5 -33.8,10.6 -10,5 -18.1,11 -24.3,17.9 -6.8,7.6 -11.7,15.7 -14.6,24.4 -3.5,10.7 -5,22 -4.2,33.7 0,0.9 0.5,3 1.2,6 0,2.1 0.4,4.6 1.1,7.3 5,18.8 15.3,34.6 32.1,44.3 5.7,3.2 11.8,5.7 18.5,7.3 9.8,2.4 19.3,3.7 28.4,4 12.4,0.4 25.2,-0.3 38.4,-2 8.8,-1.1 21.8,-3.1 39.1,-5.9 7.3,-1.2 14.6,-1.8 22.8,-2.9 15.8,-2.1 32.3,-2.8 49.5,-2.1 4.7,0.2 11.4,0.7 19.9,1.6 24.1,2.5 44.1,4.4 59.8,5.8 7.4,0.7 11.9,1.1 13.5,1.2 16,1.3 32,0 47.5,-4.2 18.5,-4.9 33.9,-15.4 41.3,-33.4 2.3,-5.5 3.6,-11.9 4.1,-19.1 0.5,-6.8 0.3,-13.3 -0.5,-19.7 -0.6,-4.6 -1.4,-9.3 -2.5,-14.2 -6.3,-29.2 -23.1,-49.4 -50.4,-60.8 -2.4,-1 -5.4,-2.1 -8.9,-3.2 -6.5,-1.1 -13.8,0.1 -21.8,3.7 -1.9,0.3 -5.8,1.2 -11.8,2.7 -13.2,3.3 -27.3,4.9 -42.5,4.7 -0.2,0 -0.2,0 -0.2,-0.2 V 600 c 0.1,0 0.2,-0.1 0.2,-0.1 17.6,-2.9 34.4,-8 50.5,-15.6 3.8,-1.8 7.8,-4.1 12,-7 4.3,-3 7.6,-6.8 9.9,-11.6 2.3,-3.9 3.7,-7.3 4.1,-10 2.6,-8.1 3.3,-15.8 2,-23.3 -2.5,-15 -9.2,-27.1 -20,-36.1 -4.6,-3.9 -10.3,-7.3 -17.1,-10.2 -9.9,-4.3 -20.2,-7 -31,-8 -6.9,-0.6 -14,-0.6 -21.3,0 -13.6,1.1 -27.1,3.2 -40.4,6.3 0,0 -0.1,0 -0.2,-0.1 v 0 c 0,0 0,-0.1 0,-0.2 0,0 0,0 0,0 3.7,-1.2 7.4,-2.5 11.2,-3.8 9,-3.2 17.6,-7.3 25.7,-12.3 4.8,-3 8,-5 9.4,-6.3 3.1,-2.7 5.2,-5.9 6.4,-9.6 3.4,-9 3.7,-17.2 1,-24.5 -4.7,-12.7 -13.5,-23.8 -23.8,-33.2 -21.4,-19.7 -48.4,-33.8 -77.2,-38.9 -7.6,-1.3 -14.6,-0.9 -21,1.2 -2.9,1 -4.6,2.2 -4,5.5 1.5,8.2 4.2,16.3 6.5,24.5 z"
               id="path2" />
            <path class="cls-4"
               d="m 930,494.2 c 10.6,0 17.6,8.2 21.1,17.5 1.7,4.4 2.9,8.7 3.7,13.1 2,11 2.5,22 1.5,33 -0.6,6.7 -2.1,13 -4.5,19.1 -2.9,7.3 -8.7,14.5 -16,16.7 -3.8,1.1 -7.8,1.1 -12.1,0 -7.2,-1.9 -10.7,-6.6 -13.8,-12.9 -1.1,-2.2 -1.9,-4 -2.4,-5.4 -6.6,-18.8 -7,-38.1 -1.4,-57.9 1.6,-5.5 3.8,-11.6 7.5,-15.8 4.3,-4.9 9.8,-7.3 16.4,-7.3 z m -2.1,31.4 c 5.5,1.2 10.9,-2.3 12.2,-8 1.3,-5.6 -2.1,-11.2 -7.6,-12.4 -5.5,-1.2 -10.9,2.3 -12.2,8 -1.3,5.6 2.1,11.2 7.6,12.4 z"
               id="path3" />
            <path class="cls-4"
               d="m 880.4,572.2 c -1.1,3.9 -2.3,7 -3.6,9.4 -5.2,9.8 -13.4,14 -24.6,12.8 -10.2,-1.2 -15.7,-9.3 -18.5,-18.5 -1.2,-3.9 -2.3,-7.9 -3.4,-11.9 -1,-5 -1.5,-9.1 -1.7,-12.4 -0.4,-10.9 0.9,-22.1 4,-33.8 0.5,-1.9 1.8,-4.6 4,-8.1 8.4,-13.8 26.6,-15.5 35.8,-1.2 4.1,6.5 7,13.9 8.5,22.3 1.8,9.8 2.3,19.7 1.4,29.8 -0.3,3.8 -1,7.6 -2,11.6 z m -21.9,-43.1 c 5.4,-1.8 8.3,-7.8 6.4,-13.5 v 0 c -1.9,-5.7 -7.8,-8.8 -13.2,-7 -5.4,1.8 -8.3,7.8 -6.4,13.5 v 0 c 1.9,5.7 7.8,8.8 13.2,7 z"
               id="path4" />
            <path class="cls-4"
               d="m 1012.6,567.1 c -6,4.4 -12.5,7.8 -19.8,10.3 -5,1.8 -10.2,3.2 -15.3,4.3 -0.9,0.2 -1.7,0.2 -2.3,0 -0.4,-0.1 -0.4,-0.2 0,-0.4 19.3,-6.5 32.9,-20.1 35.1,-41.1 0,-0.8 0.4,-0.9 0.9,-0.3 0.8,1.1 1.8,2.2 2.8,3.5 6.7,8 6.8,16.3 -1.4,23.7 z"
               id="path5" />
            <path class="cls-4"
               d="m 907.3,693.6 c -17,2.5 -33.5,-0.2 -49.7,-8.1 -3.3,-1.6 -8.1,-4.9 -14.4,-9.8 -4.1,-4 -7.6,-8.6 -10.5,-13.8 -0.9,-1.6 -2.2,-2.8 -3,-4.5 -3,-6.2 -5.3,-11.4 -7,-15.5 -1.6,-4.1 -3,-8.6 -4,-13.5 0,-0.2 0,-0.4 0.3,-0.5 0,0 0.2,0 0.3,0 3.2,1.5 6,1.4 9.3,2.5 4,1.3 8.8,2.4 14.4,3.4 13.6,2.4 27.1,4 40.5,4.8 10.9,0.7 21.8,0.4 32.8,-0.9 2.7,-0.3 7.7,-1.1 14.9,-2.2 3.9,-0.6 8,-1.5 12.2,-2.5 7,-1.7 11,-2.6 12.1,-2.9 2.9,-0.7 5.8,-1.6 8.7,-2.9 0.3,-0.1 0.5,0 0.7,0.3 0,0 0,0.2 0,0.3 -4.3,20.3 -13.9,37.5 -28.9,51.8 -7.6,7.2 -17.1,11.8 -28.6,13.9 z m 27.6,-26.7 c 8.4,-8.2 14,-17.3 19.7,-28.3 0,-0.2 0,-0.3 -0.1,-0.4 0,0 -0.2,0 -0.3,0 -24.2,7.9 -49.9,12 -75.5,9.7 -13.6,-1.2 -26,-3.1 -37.2,-5.7 -4.3,-1 -8.6,-2.5 -12.9,-4 -0.9,-0.3 -1.1,0 -0.8,0.8 6.9,15.9 17.5,28.1 31.9,36.6 15.5,9.2 35.8,12.5 52.6,6.3 7.8,-2.9 15.3,-7.8 22.5,-14.9 z"
               id="path6" />
            <path class="cls-4"
               d="m 938.2,718 c -0.2,0 -0.4,-0.2 -0.4,-0.4 v -0.3 c 0,0 0,0 0,0 17.8,0.1 35.6,-0.7 53.3,-2.5 5.4,-0.6 12.4,-1.7 21.2,-3.3 11.6,-2.2 21.7,-5.1 30.3,-8.7 8.7,-3.6 16.7,-9.5 21.9,-17.5 6.4,-9.8 9,-21.1 7.8,-33.9 0,-0.8 0.2,-0.9 0.9,-0.3 0.1,0.1 0.2,0.3 0.4,0.6 3.8,8.3 5.7,17.1 5.5,26.3 -0.2,12.4 -4.3,22.8 -13.8,30.4 -5.9,4.8 -13,8.2 -21.1,10.3 -11.4,2.9 -23.4,4.2 -35.9,3.9 -21.5,-0.6 -44.9,-2.1 -70.2,-4.6 z"
               id="path7" />
         </g>
         <g id="g22">
            <path class="cls-5"
               d="m 960.3,452.2 c -0.7,-1.5 -1.3,-2.9 -1.8,-4.4 -0.7,-1.8 -1.3,-3.3 -1.9,-4.3 -6.7,-11.4 -15.3,-20.6 -25.4,-30.7 -11.7,-11.6 -24.5,-20.3 -39.4,-27.6 -7.1,-3.5 -12.8,-6.1 -19.7,-7.9 -5.9,-1.6 -11.9,-1.9 -18,-1 -6,0.9 -10,4.4 -12.1,10.6 -2.3,-8.2 -5.1,-16.3 -6.5,-24.5 -0.6,-3.3 1.1,-4.5 4,-5.5 6.4,-2.2 13.4,-2.6 21,-1.2 28.8,5.1 55.7,19.2 77.2,38.9 10.3,9.4 19.1,20.5 23.8,33.2 2.7,7.3 2.4,15.4 -1,24.5 z"
               id="path14" />
            <path class="cls-5"
               d="m 1035.5,555.8 c -5.3,-21.4 -15.8,-38 -31.4,-49.6 -10.8,-8 -22.5,-14.3 -35.2,-18.7 -4.5,-1.6 -9,-3.2 -13.6,-4.7 -1.5,-0.5 -3.8,-2 -7.2,-4.4 7.4,-0.7 14.5,-0.7 21.3,0 10.7,1 21.1,3.7 31,8 6.8,2.9 12.5,6.4 17.1,10.2 10.8,9.1 17.5,21.1 20,36.1 1.3,7.5 0.6,15.2 -2,23.3 z"
               id="path15" />
            <path class="cls-5"
               d="m 789.2,537 c 0,0 0,0.2 0,0.3 0,0 0,0 -0.1,0 -9.5,0.1 -19.1,-0.9 -24.2,-9.4 -4.4,-7.3 -2.4,-17.2 3.2,-23.7 1.7,-1.9 4.4,-3.9 8.3,-6 5.5,-3 11.6,-5.5 18.3,-7.6 5.1,-1.6 9.6,-2.4 13.5,-2.5 0.5,0 0.6,0.1 0.1,0.4 -3,2.2 -5,3.6 -6.2,4.5 -6.6,4.6 -12.1,10.3 -16.6,17.2 -3.4,5.3 -5.2,12.5 -3,18.6 1.1,3 4.2,6 6.6,8.1 z"
               id="path16" />
            <path class="cls-5"
               d="m 776.9,612.3 c -2.2,0.5 -4.2,1.1 -5.9,2 -13.5,6.9 -24.3,12.5 -34.9,21.4 -9.3,7.9 -14.7,21.5 -6.6,32.5 1.1,1.5 2.3,2.9 3.5,4.2 0.7,0.7 0.5,0.9 -0.4,0.6 -7.4,-2.1 -12.7,-3.4 -18.7,-7.9 -11,-8.3 -11.7,-22.4 -3.6,-32.9 3.6,-4.7 8.6,-8.4 15.1,-11.2 8,-3.5 17.7,-6.4 29,-8.7 4.3,-0.9 7.7,-1.4 10.2,-1.4 2.7,0 6.8,0.2 12.2,0.8 1.2,0.1 1.2,0.3 0,0.6 z"
               id="path17" />
         </g>
         <g id="g34">
            <path class="cls-3"
               d="m 1230.4,528.7 c 0,0.6 -0.3,1.1 -0.7,1.4 0,0 -0.2,0 -0.2,0 0,0 -0.1,-0.1 -0.2,-0.2 0,0 -0.2,0 -0.3,0 0,0 0,0 0,0 -0.7,2 -1,3.1 -1,3.3 0.4,15.1 -0.3,29.5 -2.1,42.9 -2.8,20.8 -7.2,40.9 -13.5,60.3 -12,37.4 -29.9,72.5 -53.7,105.2 -14.2,19.4 -30.6,36.8 -49.4,52.1 -3.7,3 -7.1,5.4 -10.2,7.2 -0.2,0.1 -0.3,0.4 -0.2,0.7 0,0 0,0 0,0.1 l 0.2,0.2 c 0.2,0.2 0.4,0.2 0.6,0.1 12.9,-5.8 21,-9.5 24.4,-11.1 5,-2.4 10.5,-5.5 16.6,-9.3 5.5,-3.4 10.4,-7.3 14.9,-11.7 5,-4.9 9.9,-10.2 14.5,-15.9 4.2,-5.2 7,-8.7 8.4,-10.6 0.2,-0.3 0.4,-0.4 0.6,-0.4 0.2,0 0.4,0.3 0.6,0.6 -2.4,3.3 -4.9,6.5 -7.4,9.7 -11.8,15.1 -24.9,29.2 -39.3,42.5 -13.3,12.2 -26.8,22.7 -40.5,31.5 -23.5,15 -48.2,27.3 -74,36.8 -18,6.7 -36.9,11.7 -56.6,15.1 -31,5.4 -61.7,7.2 -92.2,5.7 -6.8,-0.4 -14.6,-0.9 -23.5,-1.5 -1,0 -1.9,0.1 -2.8,0.5 -26.8,13.4 -58.2,28.8 -94.1,46.2 -9,4.4 -15,7.2 -18,8.6 -19.5,9 -38.5,18 -57.2,27 -0.1,0 -0.3,0 -0.4,-0.1 0,0 0,0 0,-0.2 1.2,-11.3 2.5,-22.2 3.9,-32.7 2.3,-17.1 4,-34.1 6,-48.5 2.4,-17.1 3.8,-30.2 6,-49.6 0.2,-1.6 0.2,-3.1 0.1,-4.4 0,-0.3 -0.2,-0.6 -0.4,-0.8 -13.8,-10.7 -21.8,-17 -23.9,-18.7 -14.2,-11.9 -27.6,-24.6 -40.3,-38.2 0.1,-0.4 0.2,-0.5 0.3,-0.6 0.5,-0.3 1.2,-0.2 1.6,0.2 1.2,1.2 2.2,2.3 3,3.4 0.8,1.1 1.8,2.1 3,2.9 3.2,2.3 5.2,3.6 5.9,4 8.4,4.5 17.6,9.1 27.6,13.7 5,2.3 11,4.1 16,6.2 1.2,0.5 1.3,0.3 0.4,-0.6 -0.6,-0.6 -1.7,-1.5 -3.2,-2.7 -5,-3.9 -10.8,-8.6 -17.5,-14.2 -4.6,-3.8 -10.4,-9.2 -17.2,-16.2 -4.3,-4.4 -8.7,-9.4 -13,-15 -9.4,-12 -18.1,-24.4 -26,-37.3 -5,-8.2 -10.3,-17.3 -15.8,-27.3 -23.1,-42.4 -34.9,-87.2 -35.3,-134.6 0,-1.3 0,-8.4 0,-21.1 0,-1.8 -0.1,-3.3 -0.4,-4.5 -0.1,-0.5 -0.6,-0.9 -1.2,-0.8 -0.2,0 -0.4,0.1 -0.5,0.3 -0.2,0.2 -0.4,0.3 -0.6,0.3 -0.3,0 -0.6,-0.1 -0.7,-0.4 l -0.3,-0.5 c 6.8,-36.3 19.6,-70.4 38.6,-102.1 1.2,-1.9 3.6,-5.8 7.4,-11.4 2.6,-4 5.2,-7.7 7.7,-11.2 22.5,-31.1 50.3,-57.8 83.4,-80.1 46.8,-31.5 97.7,-50.9 152.7,-58.1 29.4,-3.9 59.8,-4.1 91.3,-0.7 34.8,3.7 68.8,12.7 102.1,27 33.8,14.5 64.3,33.5 91.5,57.2 41.3,35.8 71.6,79.3 90.9,130.5 6.1,16.2 10.6,32.8 13.5,49.9 z M 685.2,728.5 c -4.7,8.3 -4.5,17.1 0.6,26.5 3.6,6.6 8.3,11.8 13.9,15.5 6.8,4.5 14.9,8.1 24.4,10.9 12.9,3.8 26.6,5.7 41.2,5.8 10.4,0 21.4,-0.4 32.8,-1.5 18.6,-1.7 36.3,-4.2 53,-7.4 16.6,-3.2 34,-4.3 52.2,-3.5 2.1,0.1 12.4,1 30.6,2.8 13,1.3 22.5,1.9 35.3,2.6 7,0.4 13.6,0.6 20,0.8 16.8,0.3 26.8,0.5 30,0.5 16.3,0.2 32.7,-2.5 49,-8 8.3,-2.8 15.2,-6.7 20.8,-11.7 9,-8.1 12.5,-18.3 10.5,-30.7 -0.4,-2.2 -0.8,-4.4 -1.4,-6.7 10.3,-14.9 13.7,-33.8 12.5,-51.6 -0.9,-13.6 -4.1,-27.9 -9.2,-40 -11.6,-27.3 -32.2,-45.8 -61.6,-55.4 -0.3,-0.1 -0.4,-0.3 -0.2,-0.6 6.8,-10.3 11.9,-23.6 11.8,-36 -0.1,-10.9 -2.5,-21.1 -7.2,-30.6 -7.5,-15.1 -18.8,-26.2 -34.1,-33.1 -13.4,-6.1 -27.2,-10 -41.4,-11.5 -0.1,0 -0.2,-0.1 -0.2,-0.3 0,0 0,0 0,-0.1 4.8,-8.3 7.4,-17.1 7.8,-26.5 0.3,-6 -1,-12.2 -3.1,-17.6 -3.6,-9 -8.7,-17.3 -15.4,-24.8 -8.3,-9.4 -18.6,-18.3 -30.8,-26.6 -16,-10.9 -33.7,-19.2 -53,-24.7 -10.5,-3 -21,-5 -31.8,-3.3 -7.3,1.2 -13.6,3.3 -17.9,9.2 -2.4,3.4 -3.3,7.3 -2.5,11.6 0.6,3.5 1.2,6 1.6,7.3 0,0 1.4,5.1 4.3,15.1 2.1,7.4 3.6,14.4 4.5,21.6 1.3,10.6 -0.9,21.7 -5.8,30.9 -4.9,9.2 -16.3,18 -25.7,21.9 -7.2,3 -13.8,6.1 -19.8,9.2 -8.6,4.6 -16.5,10.2 -23.8,16.9 -11.1,10.3 -18.6,22.7 -22.5,37.3 -5.6,21.1 -2,40.4 10.9,57.9 0.2,0.3 0.1,0.5 -0.2,0.5 0,0 -0.4,0 -1,0 -0.5,0 -1,0 -1.3,0.2 -13,3.7 -24.6,8.8 -34.9,15.3 -16.7,10.5 -28.5,25.1 -35.5,43.8 -4.2,11.3 -6.2,22.2 -6.1,32.8 0.2,15.2 3.8,29.9 11,44 1.5,3 4,6.7 7.5,11.2 z"
               id="path23" />
            <path class="cls-3"
               d="m 927.9,525.6 c -5.5,-1.2 -8.9,-6.8 -7.6,-12.4 1.3,-5.6 6.7,-9.2 12.2,-8 5.5,1.2 8.9,6.8 7.6,12.4 -1.3,5.6 -6.7,9.2 -12.2,8 z"
               id="path24" />
            <path class="cls-3"
               d="m 858.5,529.1 c -5.4,1.8 -11.4,-1.3 -13.2,-7 -1.9,-5.7 1,-11.7 6.4,-13.5 v 0 c 5.4,-1.8 11.4,1.3 13.2,7 1.9,5.7 -1,11.7 -6.4,13.5 z"
               id="path25" />
            <path class="cls-3"
               d="m 954.7,638.6 c -5.7,11 -11.3,20 -19.7,28.3 -7.2,7.1 -14.7,12.1 -22.5,14.9 -16.9,6.2 -37.1,2.9 -52.6,-6.3 -14.3,-8.5 -25,-20.7 -31.9,-36.6 -0.4,-0.8 -0.1,-1.1 0.8,-0.8 4.3,1.5 8.6,3.1 12.9,4 11.2,2.5 23.6,4.4 37.2,5.7 25.5,2.3 51.3,-1.8 75.5,-9.7 0.2,0 0.3,0 0.4,0.2 0,0 0,0.2 0,0.3 z"
               id="path26" />
         </g>
         <path class="cls-2"
            d="m 960.3,452.2 c -1.2,3.7 -3.3,7 -6.4,9.6 -1.4,1.2 -4.5,3.3 -9.4,6.3 -8.1,5 -16.7,9.1 -25.7,12.3 -3.7,1.3 -7.4,2.6 -11.2,3.8 0,0 -0.2,0.1 -0.1,0.2 0,0 0,0 0,0 v 0 c 0,0.1 0.2,0.1 0.2,0.1 13.3,-3.1 26.8,-5.2 40.4,-6.3 3.3,2.4 5.7,3.9 7.2,4.4 4.5,1.6 9,3.2 13.6,4.7 12.7,4.5 24.4,10.7 35.2,18.7 15.6,11.7 26.1,28.2 31.4,49.6 -0.4,2.7 -1.7,6.1 -4.1,10 l -18.8,1.3 c 8.1,-7.3 8.1,-15.7 1.4,-23.7 -1.1,-1.2 -2,-2.4 -2.8,-3.5 -0.5,-0.6 -0.8,-0.6 -0.9,0.3 -2.2,21 -15.8,34.6 -35.1,41.1 -0.4,0.1 -0.4,0.2 0,0.4 0.6,0.2 1.4,0.2 2.3,0 0.9,0 1.3,0.2 1,1 0,0.2 -0.2,0.3 -0.4,0.4 -2.3,1.2 -4.5,2.6 -6.8,4.3 -3.1,2.3 -5.3,3.8 -6.5,4.5 -9.2,5.1 -19,8.7 -29.5,10.8 -6.1,1.2 -12.7,2.4 -19.8,3.5 -4.5,0.7 -8.1,0.8 -13.7,0.9 0,0 -0.1,0 -0.2,0.1 v 0.2 c -0.2,0.2 -0.2,0.4 0,0.5 0,0 0,0 0.2,0 5.4,0.5 11,1.2 17,2 6.9,0.9 12.5,1.5 16.9,1.6 13.4,0.5 26.6,-0.3 39.5,-2.3 9.9,-1.6 19.9,-4.7 30.1,-9.3 4,-1.8 6.6,-4.1 7.9,-6.9 8.1,-3.5 15.3,-4.8 21.8,-3.7 0.9,1.9 2,3.7 3.2,5.4 1.7,2.4 2.9,4.2 3.4,5.3 3.4,6.4 5.8,13.1 7.1,19.9 3.6,18.1 -0.7,34.2 -13,48.1 -10.6,12 -26.2,19.7 -41.5,24 -16.4,4.6 -33.4,7.4 -50.9,8.2 -2.8,0.1 -7.9,0 -15.3,-0.4 -8.2,-0.4 -15.1,-2.5 -20.9,-6.2 11.5,-2.1 21,-6.7 28.6,-13.9 15,-14.2 24.6,-31.5 28.9,-51.8 0,-0.3 -0.1,-0.5 -0.4,-0.6 -0.1,0 -0.2,0 -0.3,0 -2.9,1.2 -5.8,2.2 -8.7,2.9 -1.1,0.3 -5.1,1.2 -12.1,2.9 -4.2,1 -8.2,1.8 -12.2,2.5 -7.2,1.2 -12.1,1.9 -14.9,2.2 -11,1.3 -21.9,1.6 -32.8,0.9 -13.4,-0.9 -26.9,-2.5 -40.5,-4.8 -5.6,-1 -10.4,-2.1 -14.4,-3.4 -3.3,-1.1 -6.1,-1 -9.3,-2.5 -0.2,0 -0.4,0 -0.5,0.2 0,0 0,0.2 0,0.3 1,4.9 2.3,9.4 4,13.5 1.7,4.1 4,9.3 7,15.5 0.8,1.7 2.2,2.9 3,4.5 2.8,5.2 6.3,9.8 10.5,13.8 -0.4,1.8 0,3.6 1.2,5.2 7.1,9.5 16.1,17.4 27.1,23.5 3.2,1.8 5.4,3.1 6.5,3.9 0.3,0.2 0.3,0.3 0,0.5 -0.4,0.2 -0.9,0.3 -1.5,0.3 -1.1,0 -1.7,0 -1.9,0 -18.8,3.3 -33.5,5.6 -44.1,7 -13.2,1.7 -28.5,3 -46,3.9 -7.5,0.4 -14.1,0.4 -20,0 -13.6,-0.8 -24.2,-2.1 -31.8,-4 -15,-3.7 -28.6,-10.6 -40.7,-20.6 -1.8,-1.5 -3.6,-3.1 -5.4,-5 -1.7,-1.7 -3.5,-3.5 -5.2,-5.2 -0.7,-3.1 -1.2,-5.1 -1.2,-6 -0.7,-11.7 0.7,-22.9 4.2,-33.7 2.9,-8.7 7.7,-16.9 14.6,-24.4 6.3,-6.9 14.4,-12.9 24.3,-17.9 9.9,-5 21.2,-8.5 33.8,-10.6 0.8,-0.1 1.6,0 2.4,0.2 6.1,2 11.5,4.2 17.9,5.5 15.2,3.2 30.3,5 45.1,5.6 1.2,0 3.1,0 5.6,-0.2 1.9,-0.1 3.8,-0.2 5.7,0 0.6,-1.1 1.4,-1.6 2.3,-1.6 5.3,0.3 10.1,0.5 14.5,0.7 3.6,0.2 7.7,-0.4 12.3,-1.8 9.4,-2.8 16.6,-10.4 20,-19.4 0.7,-1.8 1,-3.5 1,-5 0,-3 -1.1,-4.5 -3.4,-4.4 1,-4 1.7,-7.9 2,-11.6 0.8,-10 0.3,-20 -1.4,-29.8 -1.5,-8.4 -4.4,-15.9 -8.5,-22.3 -9.1,-14.3 -27.3,-12.6 -35.8,1.2 -2.1,3.4 -3.4,6.1 -4,8.1 -3.1,11.6 -4.5,22.9 -4,33.8 0.1,3.3 0.7,7.4 1.7,12.4 -13.6,1.4 -27.8,1.6 -42.6,0.6 -14.9,-1 -28.5,-5.5 -41,-13.5 -0.8,-1.4 -1.2,-2.5 -1.3,-3.4 -1.4,-12.4 0.7,-24.1 6.5,-35.2 2.8,-5.4 6.1,-10 9.8,-13.7 8.9,-8.8 18.9,-15.9 30,-21.2 11.1,-5.3 19.2,-9.1 24.1,-11.2 1.8,-0.8 4.5,-1.5 7.8,-2.2 9.5,-1.9 18.9,-2.5 28.2,-2.1 4.6,0.2 9.9,0.7 16,1.5 0.3,0 0.5,-0.1 0.6,-0.4 0.2,-0.4 0,-0.7 -0.4,-1 -11.7,-7.2 -24.1,-10.1 -37.3,-8.6 -0.1,0 -0.3,0 -0.3,-0.2 0,0 0,-0.1 0,-0.2 11.8,-16.2 16.3,-34.4 13.6,-54.4 -0.2,-1.3 -0.6,-3.4 -1.2,-6.1 -0.5,-2.1 -0.9,-4.2 -1.2,-6.1 2.1,-6.1 6.1,-9.7 12.1,-10.6 6.1,-0.9 12.1,-0.6 18,1 6.9,1.9 12.6,4.5 19.7,7.9 14.9,7.3 27.7,15.9 39.4,27.6 10.1,10.1 18.7,19.3 25.4,30.7 0.6,1 1.3,2.5 1.9,4.3 0.5,1.4 1.1,2.9 1.8,4.4 z M 789.2,537 c -2.4,-2.1 -5.6,-5.1 -6.6,-8.1 -2.2,-6.2 -0.4,-13.3 3,-18.6 4.5,-6.9 10,-12.6 16.6,-17.2 1.2,-0.8 3.2,-2.3 6.2,-4.5 0.4,-0.3 0.4,-0.5 -0.1,-0.4 -3.9,0 -8.4,0.9 -13.5,2.5 -6.7,2.1 -12.8,4.6 -18.3,7.6 -3.9,2.1 -6.7,4.1 -8.3,6 -5.6,6.4 -7.6,16.4 -3.2,23.7 5.2,8.5 14.7,9.5 24.2,9.4 0,0 0.2,0 0.2,-0.2 0,0 0,-0.1 0,-0.1 z m 161.9,-25.4 c -3.5,-9.3 -10.5,-17.4 -21.1,-17.5 -6.6,0 -12.1,2.4 -16.4,7.3 -3.7,4.2 -5.9,10.3 -7.5,15.8 -5.6,19.7 -5.1,39 1.4,57.9 0.5,1.4 1.3,3.2 2.4,5.4 3.1,6.4 6.6,11.1 13.8,12.9 4.2,1.1 8.3,1.1 12.1,0 7.4,-2.2 13.2,-9.4 16,-16.7 2.4,-6 3.9,-12.4 4.5,-19.1 1,-11 0.5,-22 -1.5,-33 -0.8,-4.4 -2,-8.7 -3.7,-13.1 z M 776.9,612.3 c 1.2,-0.3 1.2,-0.4 0,-0.6 -5.4,-0.6 -9.4,-0.9 -12.2,-0.8 -2.5,0 -5.9,0.5 -10.2,1.4 -11.3,2.4 -20.9,5.3 -29,8.7 -6.4,2.8 -11.4,6.5 -15.1,11.2 -8.2,10.5 -7.4,24.6 3.6,32.9 6,4.5 11.3,5.8 18.7,7.9 0.9,0.3 1.1,0 0.4,-0.6 -1.2,-1.3 -2.4,-2.7 -3.5,-4.2 -8.2,-11 -2.7,-24.6 6.6,-32.5 10.5,-8.9 21.3,-14.5 34.9,-21.4 1.7,-0.8 3.6,-1.5 5.9,-2 z"
            id="path35" style="display:inline" />
         <g id="g38">
            <path class="cls-1"
               d="m 830.3,564 c 1,4 2.2,8 3.4,11.9 2.8,9.1 8.3,17.3 18.5,18.5 11.2,1.3 19.4,-3 24.6,-12.8 1.3,-2.4 2.5,-5.5 3.6,-9.4 2.3,0 3.4,1.4 3.4,4.4 0,1.5 -0.3,3.2 -1,5 -3.4,9 -10.6,16.6 -20,19.4 -4.6,1.4 -8.7,2 -12.3,1.8 -4.4,-0.2 -9.2,-0.5 -14.5,-0.7 -0.9,0 -1.7,0.5 -2.3,1.6 0.1,-0.7 -0.1,-1 -0.7,-1.1 -20.9,-1.8 -40.6,-7.1 -59.1,-16 -5.3,-2.5 -10.6,-5.4 -14.6,-9.8 -6.3,-7 -10.6,-15.6 -12.6,-25.6 12.5,8 26.1,12.5 41,13.5 14.9,1 29.1,0.8 42.6,-0.6 z"
               id="path36" />
            <path class="cls-1"
               d="m 1031.5,565.7 c -2.3,4.7 -5.6,8.6 -9.9,11.6 -4.2,2.9 -8.2,5.2 -12,7 -16.1,7.5 -33,12.7 -50.5,15.6 0,0 0,0 0,0.1 v 0.2 c -0.2,0.1 0,0.2 0,0.2 15.2,0.2 29.3,-1.4 42.5,-4.7 6,-1.5 10,-2.4 11.8,-2.7 -1.3,2.8 -3.9,5.1 -7.9,6.9 -10.2,4.6 -20.2,7.7 -30.1,9.3 -12.9,2.1 -26.1,2.8 -39.5,2.3 -4.4,-0.2 -10,-0.7 -16.9,-1.6 -6,-0.8 -11.6,-1.5 -17,-2 -0.2,0 -0.3,-0.2 -0.3,-0.4 0,0 0,-0.1 0,-0.2 v -0.2 c 0.2,0 0.2,0 0.3,-0.1 5.6,-0.2 9.2,-0.2 13.7,-0.9 7.1,-1.2 13.7,-2.3 19.8,-3.5 10.5,-2.1 20.3,-5.6 29.5,-10.8 1.2,-0.7 3.4,-2.2 6.5,-4.5 2.3,-1.7 4.5,-3.1 6.8,-4.3 0.2,0 0.3,-0.2 0.4,-0.4 0.3,-0.7 0,-1 -1,-1 5.2,-1.1 10.3,-2.5 15.3,-4.3 7.2,-2.5 13.8,-6 19.8,-10.3 l 18.8,-1.3 z"
               id="path37" />
            <path class="cls-1"
               d="m 681.3,685.3 c 1.7,1.7 3.5,3.4 5.2,5.2 1.8,1.8 3.6,3.5 5.4,5 12.1,10 25.7,16.9 40.7,20.6 7.6,1.9 18.2,3.2 31.8,4 5.9,0.3 12.5,0.3 20,0 17.4,-0.8 32.7,-2.1 46,-3.9 10.6,-1.4 25.3,-3.7 44.1,-7 0.1,0 0.8,0 1.9,0 0.6,0 1.1,-0.1 1.5,-0.3 0.3,-0.2 0.3,-0.3 0,-0.5 -1.1,-0.8 -3.3,-2.1 -6.5,-3.9 -10.9,-6.1 -19.9,-14 -27.1,-23.5 -1.2,-1.6 -1.6,-3.4 -1.2,-5.2 6.3,4.9 11,8.2 14.4,9.8 16.2,7.9 32.8,10.7 49.7,8.1 5.8,3.7 12.7,5.8 20.9,6.2 7.4,0.4 12.5,0.6 15.3,0.4 17.5,-0.8 34.4,-3.5 50.9,-8.2 15.3,-4.3 30.9,-12.1 41.5,-24 12.3,-13.9 16.7,-30 13,-48.1 -1.4,-6.8 -3.8,-13.5 -7.1,-19.9 -0.6,-1.1 -1.7,-2.8 -3.4,-5.3 -1.2,-1.7 -2.3,-3.5 -3.2,-5.4 3.5,1.2 6.5,2.2 8.9,3.2 27.4,11.3 44.2,31.6 50.4,60.8 1,4.9 1.9,9.6 2.5,14.2 0.8,6.4 1,12.9 0.5,19.7 -0.5,7.2 -1.9,13.6 -4.1,19.1 -7.4,18 -22.8,28.5 -41.3,33.4 -15.4,4.1 -31.4,5.5 -47.5,4.2 -1.6,-0.1 -6.1,-0.5 -13.5,-1.2 -15.7,-1.4 -35.6,-3.4 -59.8,-5.8 -8.6,-0.9 -15.2,-1.4 -19.9,-1.6 -17.2,-0.7 -33.7,0 -49.5,2.1 -8.2,1.1 -15.5,1.7 -22.8,2.9 -17.3,2.8 -30.3,4.7 -39.1,5.9 -13.2,1.7 -26,2.4 -38.4,2 -9.1,-0.3 -18.6,-1.6 -28.4,-4 -6.7,-1.6 -12.9,-4.1 -18.5,-7.3 -16.8,-9.7 -27.2,-25.5 -32.1,-44.3 -0.7,-2.7 -1.1,-5.1 -1.1,-7.3 z M 938.2,718 c 25.3,2.4 48.7,3.9 70.2,4.6 12.5,0.4 24.4,-0.9 35.9,-3.9 8.2,-2.1 15.2,-5.5 21.1,-10.3 9.5,-7.6 13.6,-18 13.8,-30.4 0.2,-9.2 -1.7,-18 -5.5,-26.3 -0.1,-0.3 -0.3,-0.5 -0.4,-0.6 -0.7,-0.6 -1,-0.5 -0.9,0.3 1.2,12.8 -1.4,24.1 -7.8,33.9 -5.2,8 -13.3,13.9 -21.9,17.5 -8.6,3.6 -18.7,6.5 -30.3,8.7 -8.8,1.7 -15.8,2.8 -21.2,3.3 -17.8,1.8 -35.5,2.7 -53.3,2.5 0,0 0,0 0,0 v 0.3 c 0,0.2 0.2,0.4 0.4,0.4 z"
               id="path38" />
         </g>
      </g>
   </g>
</svg>