<?xml version="1.0" encoding="UTF-8" standalone="no"?>
<svg version="1.1" viewBox="0 0 1184.2 510.20201" id="svg39" width="284.20801" height="122.44848"
   xmlns="http://www.w3.org/2000/svg" xmlns:svg="http://www.w3.org/2000/svg">
   <defs id="defs1">
      <style id="style1">
         .cls-3 {
            /* fill: #fdfefd; */
            fill: hsl(var(--logo-background));
         }

         .cls-4 {
            /* fill: #241e1e; */
            fill: hsl(var(--logo-outline));
         }

         .cls-5 {
            /* fill: #addaed; */
            fill: hsl(var(--logo-main-light))
         }
      </style>
   </defs>
   <!-- Generator: Adobe Illustrator 28.7.1, SVG Export Plug-In . SVG Version: 1.2.0 Build 142)  -->
   <g id="g39" transform="translate(-295,-1035.0847)">
      <g id="Layer_1">
         <g id="g13">
            <path class="cls-4"
               d="m 1288.4,1297.2 c -0.7,0.1 -0.7,0.4 -0.1,0.7 3.7,2.1 6.8,4.2 9.4,6.3 9.4,7.7 17.3,16 23.7,25.1 11.3,16.1 18.9,33.7 22.7,52.9 1.4,6.9 2.3,13.6 2.8,19.8 1.4,18.6 -1.2,36.7 -7.8,54.3 -5.4,14.5 -12.5,27.3 -21.2,38.4 -16.1,20.3 -36.4,34.6 -60.9,42.8 -14.5,4.8 -29.7,7.7 -45,7.5 -16.4,-0.2 -32.1,-3 -47.1,-8.2 -5.8,-2 -11.9,-4.8 -18.2,-8.2 -13.8,-7.6 -26.1,-17.1 -36.9,-28.6 -0.4,-0.4 -0.8,-0.4 -1.2,0 -22.2,25.1 -50,39.8 -83.2,44.3 -19.7,2.6 -40.9,-0.1 -59.6,-6.2 -6.1,-2 -12.2,-4.6 -18.3,-8 -5.8,-3.2 -11.4,-6.8 -16.9,-10.9 -3.9,-3 -6.3,-4.7 -7.1,-5.1 -0.4,-0.2 -0.6,-0.1 -0.7,0.3 -0.7,2.4 -2,5.1 -3.9,8.2 -7.9,12.8 -19.3,19.2 -34.2,19.2 -24.3,0 -36.8,0 -37.4,0 -13,0.1 -23.8,-4.2 -32.6,-12.9 -2.9,-2.9 -5.6,-5.8 -8,-8.7 -0.2,-0.3 -0.6,-0.3 -0.8,0 0,0 0,0 -0.1,0.1 -4.3,7.1 -10.1,12.7 -17.4,16.9 -5.3,3 -10.9,4.5 -16.8,4.6 -0.2,0 -14.6,0 -43,0 -6.7,0 -12,-2.3 -20.1,-5.7 -0.3,-0.1 -0.6,-0.1 -0.9,0 -0.9,0.3 -1.7,0.8 -2.5,1.4 -4.7,3.5 -10.2,4.5 -17,4.5 -6.8,0 -14.3,0 -29.9,-0.2 -8.5,0 -14.7,-0.6 -18.5,-1.7 -8.9,-2.4 -16.4,-7.3 -22.5,-14.5 -0.3,-0.3 -0.8,-0.4 -1.1,-0.1 -6.6,5.1 -13.9,8.9 -22,11.3 -6.7,2 -12.8,3.4 -18.3,4.2 -3.8,0.6 -10,0.8 -18.8,0.8 -42.4,-0.1 -69.2,-0.2 -80.7,-0.1 -3.2,0 -7.3,-1.1 -12.5,-3.3 -12.8,-5.5 -21.2,-15.2 -25,-29 -0.7,-2.7 -1.1,-5.2 -1.2,-7.5 0,-6.9 0,-20.1 -0.1,-39.5 -0.2,-54.9 -0.3,-93.8 -0.4,-116.7 0,-5.2 -0.2,-10.3 -0.4,-15.2 -0.3,-6.3 -0.2,-11.3 0.4,-15.2 1.3,-8.2 3.9,-15.2 7.8,-21 0.5,-0.8 0.3,-1 -0.6,-0.9 -4.7,0.9 -8.9,1.6 -12.6,2.1 -2.2,0.3 -6.4,0.4 -12.7,0.4 -7.3,0 -34,0 -80.2,0 -7.2,0 -12.4,-0.5 -15.6,-1.4 -8.2,-2.4 -14.9,-7 -20,-13.8 -3.8,-5 -6.2,-10.4 -7.3,-16.3 -0.4,-2.4 -0.7,-8.2 -0.7,-17.3 -0.1,-83.9 -0.2,-137.8 -0.2,-161.8 0,-7.9 0.4,-13.5 1.4,-16.9 4.7,-17.4 20.5,-30.4 39,-30.4 25.1,0 50.6,0 76.5,0 4.5,0 9,0.2 13.3,0.7 13.3,1.4 25.4,6.1 36.2,14.1 0.3,0.2 0.5,0.2 0.7,0 3.8,-4.4 8.4,-8 13.7,-10.7 4.9,-2.5 10.4,-3.8 16.4,-3.8 19.8,0 33.1,0 40.1,0 12,0 20.1,4.8 28.5,13.4 0.2,0.2 0.4,0.2 0.6,0 4.9,-5.6 10.2,-9.7 17.3,-11.9 3.2,-1 8.3,-1.5 15.3,-1.4 5.8,0 19.2,0 40.1,0 2.3,0 4,0.2 5.2,0.7 1.9,0.8 5.4,2.6 7.4,1.8 4.2,-1.7 6.1,-2.4 10.2,-2.5 11.5,0 23.7,0 36.8,0 6,0 10.5,0.2 13.6,0.6 5.5,0.7 11.1,3.1 16.7,7.2 8.8,6.4 14.3,14.7 16.5,25 0.7,3.2 1.1,9.8 1.1,19.8 0,29.8 0,59.7 0,89.8 0,0.2 0,0.3 0.3,0.3 h 9.3 c 0.1,0 0.2,0 0.2,-0.2 0,-23.3 0,-57.3 -0.2,-102 0,-8.8 2.9,-17.1 8.7,-24.9 5.2,-6.9 12.2,-11.7 21.2,-14.3 3.2,-0.9 9.9,-1.4 19.9,-1.3 9.2,0 19.7,0 31.5,-0.2 7.7,-0.1 14.6,2.1 20.6,6.7 6.5,5 11.2,10.9 13.8,17.8 2.6,6.7 3.8,12.5 3.6,17.3 -0.1,2.8 -0.2,7.1 -0.2,12.8 0,26.1 0,55 0,86.6 0,0.4 0.2,0.6 0.6,0.6 h 10.6 c 0.3,0 0.5,-0.1 0.6,-0.4 1.5,-2.7 3.1,-5.1 5,-7.1 0.5,-0.5 0.6,-1.2 0.3,-1.8 -10,-20.5 -12.7,-42 -8.2,-64.5 2.2,-10.9 6.4,-20.8 12.8,-29.7 8.4,-11.7 18.7,-20.9 31.1,-27.6 10.6,-5.7 21,-9.5 31.3,-11.4 32.2,-5.9 62.1,-1 89.8,14.8 0.3,0.2 0.6,0.1 0.8,-0.1 4,-4.1 9,-7.7 14.9,-10.8 3,-1.5 6,-2.5 9.1,-2.9 0.7,0 3.8,-0.2 9.4,-0.2 7.1,0 19.9,0 38.3,-0.2 3,0 6,0.4 9,1.3 6.7,2 12.9,6 18.7,12.2 0.1,0.1 0.3,0.1 0.4,0 5.9,-5.8 14.1,-10.7 21.9,-12.4 2.6,-0.6 6.8,-0.9 12.6,-0.9 13.1,0 24.3,0 33.5,0 9.2,0 7.2,0.3 9.3,0.9 3.2,0.9 6.1,2.2 8.7,3.8 0.3,0.2 0.6,0.2 0.8,0 1.4,-1.4 2.3,-2.2 2.8,-2.5 2.5,-1.4 7.5,-2.1 11.1,-2.1 4.4,0 18.7,0 43,0 2.6,0 5.4,0.7 8.3,2.1 0.3,0.2 0.6,0.2 1,0.2 1,0 1.7,-0.2 2.1,-0.3 3.3,-1.3 5.5,-1.9 6.9,-1.9 87.8,-0.2 133.1,-0.3 136,-0.2 13.8,0.3 26.2,8.6 32.4,20.8 2.6,5.3 4,11.9 4,19.9 0,9.9 0,20.8 0,32.7 0,2.7 -0.6,6.3 -1.9,10.7 -1.1,3.7 -2.5,7 -4.3,9.8 -5.3,8.3 -12.5,13.9 -21.7,16.7 -5.6,1.7 -11.5,1.7 -17.3,1.3 -0.3,0 -0.6,0.2 -0.6,0.6 0,0 0,0 0,0 0.1,28.2 0.2,62.7 0.1,103.6 0,6.8 -1.3,13.1 -3.9,18.8 -5.6,12.2 -17.7,20.5 -30.8,22.6 -2.7,0.4 -9,0.7 -18.8,0.7 -8.3,0 -19,0.1 -25.1,-0.3 -13.4,-1 -24.9,-6.3 -34.6,-15.9 -0.3,-0.3 -0.9,-0.3 -1.2,0 -5.2,5 -10.4,9.5 -16.4,12.4 -3.9,1.9 -8.6,3.4 -14.1,4.6 z M 967.5,1135 c -7.4,-4.4 -5.2,-14.6 1.3,-18.4 3.9,-2.3 8.9,-3.2 15,-2.7 4.4,0.4 10,2.9 12.2,7.1 0.9,1.7 1.3,3 1.4,3.8 0.4,4.4 2.9,6.6 7.5,6.5 4.5,0 17.3,0 38.4,0.1 2.1,0 3.6,-0.3 4.5,-1 3.7,-2.6 2,-9.6 0.9,-13.4 -4.7,-16.2 -14.2,-28.5 -28.5,-36.9 -8.4,-4.9 -17.1,-8 -26.3,-9.2 -11,-1.5 -21.7,-1.4 -31.9,0.5 -9.8,1.8 -18.1,4.8 -24.9,9.1 -11.2,7.1 -19.1,17.1 -23.6,29.9 -8.3,23.7 1,51.5 23.8,63.3 1.7,0.9 4.2,2.1 7.7,3.8 2.6,1.3 5.3,2.4 8,3.2 4.4,1.4 12.4,3.8 24.1,7.2 5.7,1.6 9.9,2.5 14.1,4.8 3.2,1.7 5.1,2.9 5.8,3.5 5.3,4.6 6.5,9.6 3.8,15 -2.5,5 -7.1,7.1 -12.6,7.7 -9.3,1 -19.5,-2.3 -22.2,-12.1 -0.3,-1 -0.5,-2 -0.8,-3 -0.7,-3 -2.3,-4.6 -4.8,-5.9 -0.9,-0.5 -2.4,-0.8 -4.5,-0.8 -7.6,0 -20.3,0 -38.1,0.1 -3.8,0 -5.3,0.8 -6.5,4.4 -0.7,2.2 -1.1,4.2 -1,6 0.4,14.8 6.1,27.5 17,38.2 10.6,10.4 25,16.4 39.5,18.6 25.8,3.8 50.4,0 70.4,-17.4 15,-13.1 21,-30 18.1,-50.8 -1.6,-11.7 -6.8,-22 -15.4,-30.7 -4.1,-4.2 -9.6,-7.9 -16.4,-11.3 -7.2,-3.5 -14.5,-6.3 -21.7,-8.3 -1.8,-0.5 -9.6,-2.7 -23.4,-6.6 -5,-1.4 -8.7,-2.8 -10.9,-4.2 z m -516.2,24.7 c 0,-0.9 0.4,-1.7 1.1,-2.3 3.5,-2.8 6.6,-6.1 9.3,-9.9 2.5,-3.4 4.2,-7.4 5.1,-12.1 3.3,-16.6 0,-32.5 -11.7,-45.2 -5.3,-5.8 -12,-10.4 -19.9,-13.9 -6.6,-2.9 -13,-4.4 -19,-4.4 -7.2,0 -33.3,0 -78.3,0 -2.5,0 -4.3,0.3 -5.2,0.9 -1.7,1 -3,2.4 -3.9,4.1 -0.2,0.3 -0.2,0.6 -0.2,1 0,15.1 0,74.3 -0.1,177.4 0,1.4 0.5,2.7 1.4,3.8 1.4,1.7 3.2,2.5 5.4,2.6 2.4,0 26.3,0 72,0 13.7,0 22.1,0.1 32.8,-3.4 15.2,-5.1 28.9,-17.5 33.9,-32.8 5.5,-16.8 3.6,-32.8 -5.6,-47.8 -3.8,-6.2 -10.1,-11.6 -15.6,-15.8 -0.9,-0.7 -1.4,-1.4 -1.4,-2.1 z m 127.4,50 c -6.2,7.2 -19.6,7.1 -27.7,4 -4,-1.5 -6.9,-4.3 -8.8,-8.3 -2.9,-6 -2.9,-11.9 -2.9,-18.6 0,-14 0,-49.2 0,-105.8 0,-2.2 0,-5.6 -1.4,-6.8 -1.9,-1.4 -2.7,-2.6 -5.4,-2.5 -10.3,0.2 -23.2,0.2 -38.5,0.2 -3,0 -3.7,1 -5.6,2.6 -0.7,0.6 -1.1,1.9 -1.1,4 0,50.9 0,88.1 0,111.7 0,6.7 0.3,12.5 0.9,17.4 1.4,11 5.6,21.2 12.7,30.8 10.5,14.3 26.2,22.8 43.4,25.8 18.8,3.2 36.7,2.4 54,-5.3 17.6,-7.9 30.2,-22.1 35.6,-40.6 1.6,-5.4 2.5,-10.3 2.8,-14.7 0.5,-7.7 0.8,-18.5 0.7,-32.3 -0.4,-54.3 -0.6,-85.1 -0.6,-92.5 0,-2.8 -1,-4.8 -3,-5.9 -1.1,-0.7 -3.1,-1 -5.9,-1.1 -7.3,0 -19.7,0 -37.1,0 -2.3,0 -4.1,0.7 -5.2,2.1 -0.8,1 -1.3,2.6 -1.2,4.9 0.1,29.7 0.1,67.8 0,114.2 0,6.6 -1.2,11.9 -5.3,16.7 z m 128.2,4.7 c -0.1,-3.1 -0.2,-6.2 -0.2,-9.4 0,-22.6 0,-65.1 -0.2,-127.5 0,-3.2 -2.6,-5.7 -5.7,-5.7 -24.4,0 -37.1,0 -38.1,0 -2.8,0 -5,1.1 -6.6,3.4 -0.7,1 -0.7,2 -0.7,3.2 0,51.6 0,109.6 0,174 0,1.8 0,3.4 0.2,4.7 0,0.5 0.3,0.9 0.6,1.2 1.7,1.7 2.7,3.1 4.6,3.5 0.8,0.2 1.9,0.3 3.1,0.3 32.4,-0.2 67.7,-0.3 105.9,-0.2 2,0 3.2,-0.1 3.6,-0.4 1.1,-0.7 2.1,-1.5 3.1,-2.4 0.7,-0.7 1.1,-2 1.1,-3.8 0,-12.3 0,-22.9 0,-31.9 0,-3.2 -1,-5.8 -3,-7.6 -0.9,-0.8 -2.1,-1 -3.2,-1 -19.2,0 -40.6,0 -64.1,0 -0.3,0 -0.5,-0.2 -0.5,-0.5 z m 129.9,-0.1 c -0.1,-0.6 -0.2,-1 -0.2,-1.2 0,-56.1 0,-101.4 0,-135.7 0,-2.4 -1,-4.1 -3,-4.9 -1,-0.4 -2.7,-0.7 -5.1,-0.7 -18.6,0 -30.8,0 -36.5,0 -2,0 -3.5,0.3 -4.4,1 -1.5,1.1 -2.2,2.7 -2.2,4.6 0.1,67.8 0,126.9 -0.2,177.2 0,0.8 0,1.7 0.3,2.8 0,0.3 0.2,0.6 0.4,0.9 1.7,1.9 2.7,3.4 4.8,3.4 68.2,0 104,0 107.2,0 1.8,0 3.5,0 5.3,-0.2 0.3,0 0.6,-0.1 0.9,-0.3 1.9,-1.6 2.9,-3.6 2.9,-6.1 0,-3.7 0,-14.1 0,-31 0,-2.3 -0.2,-3.8 -0.7,-4.7 -0.8,-1.5 -2.8,-4.2 -4.7,-4.4 -0.7,0 -1.1,-0.1 -1.3,-0.1 -19.5,0 -40.4,-0.1 -62.6,-0.1 -0.3,0 -0.6,-0.2 -0.6,-0.5 z m 331.5,-29.3 v 71.3 c 0,3 2.5,5.5 5.5,5.5 h 41.6 c 2.6,0 4.7,-2.1 4.7,-4.7 0,-93 -0.1,-149.2 -0.1,-168.6 0,-4.1 0,-8.1 -0.3,-12.2 -0.1,-2.5 -2.2,-4.5 -4.7,-4.4 -14.7,0 -28.2,0 -40.6,0 -2.7,0 -3.6,1 -5.5,2.6 -0.8,0.7 -0.8,2.2 -0.8,3.2 0,31.1 0,51.3 0.2,60.5 0,0.3 -0.2,0.5 -0.5,0.5 h -48.7 c -0.2,0 -0.3,-0.1 -0.3,-0.3 0,-17.7 0.1,-36.9 0.1,-57.5 0,-0.7 0,-1.8 -0.1,-3.5 0,-1.3 -0.4,-2.4 -1.2,-3.2 -1.4,-1.5 -2.7,-2.2 -3.8,-2.2 -13.1,0 -26.2,0 -39.3,0 -2.2,0 -3.7,0.3 -4.6,1 -1.4,1 -2.1,2.6 -2.1,4.8 0,28.8 0,88.2 -0.2,178.2 0,1.4 0.2,2.4 0.8,3 1.9,2.2 3.7,2.8 7,2.8 16.7,0 29.5,0 38.3,0 3,0 5.5,-2.5 5.5,-5.5 v -71.2 c 0,-0.2 0.2,-0.4 0.4,-0.4 h 48.3 c 0.2,0 0.3,0.1 0.3,0.3 v 0 z m 124.6,-107.3 c 0,-3.1 -2.6,-5.7 -5.7,-5.7 h -40.3 c -3.1,0 -5.7,2.6 -5.7,5.7 V 1256 c 0,3.1 2.6,5.7 5.7,5.7 h 40.3 c 3.1,0 5.7,-2.6 5.7,-5.7 v 0 z m 107.2,39.5 c 12.4,-0.1 25.5,-0.1 39.4,-0.1 1.1,0 1.9,0 2.5,-0.2 0.3,0 0.6,-0.2 0.8,-0.5 1.6,-1.8 2.4,-4.2 2.4,-7.4 0,-11 0,-21.2 0,-30.5 0,-4.4 -2.3,-6.6 -6.9,-6.6 -45.8,0.1 -89.5,0.2 -131.2,0.2 -2.1,0 -3.6,0.7 -4.5,2 -0.5,0.8 -0.8,2.2 -0.8,4.3 0,15 0,25.7 0,32 0,2.4 0.7,4.3 2,5.5 1,0.9 2.5,1.3 4.7,1.3 14.7,0 27.5,0 38.5,-0.1 1.1,0 1.6,0.5 1.6,1.6 v 138.9 c 0,0.4 0.2,0.7 0.5,1 1.6,1.2 2.9,2 3.7,2.4 0.9,0.5 2.2,0.7 3.9,0.7 19.7,0 32.9,0 39.7,-0.1 0.7,0 1.4,-0.4 2,-1.1 0.9,-1.2 1.5,-2.5 1.7,-4.1 0,-0.1 0,-1.6 0,-4.3 -0.2,-40.9 -0.3,-85.6 -0.2,-134.3 0,-0.4 0.2,-0.5 0.5,-0.6 z m -355,322.1 c -0.1,0.6 -0.3,1 -0.5,1.3 -6,9.5 -14.2,15.5 -24.4,17.9 -10.5,2.5 -21.6,0.5 -31.1,-4.4 -6,-3.1 -10.9,-7.2 -14.9,-12.4 -4.8,-6.2 -7.9,-13 -9.4,-20.2 -1.6,-8 -1.7,-15.5 -0.3,-22.6 2.8,-14 10.3,-24.7 22.6,-32.2 11.1,-6.7 22.7,-8.2 34.8,-4.6 5.7,1.7 11.4,5.1 17.1,10.2 4.1,3.6 5.7,9.3 10.2,12.7 0.4,0.3 0.9,0.3 1.3,0 16.1,-10.1 28,-17.7 35.7,-22.7 5.2,-3.3 8.7,-5.5 10.5,-6.4 0.3,-0.2 0.4,-0.4 0.2,-0.7 -0.5,-0.7 -2.1,-3.1 -4.9,-7.2 -2.6,-3.8 -6.5,-8.2 -11.8,-13.2 -12.4,-11.7 -26.4,-19.7 -42.1,-24 -5.7,-1.6 -12.3,-2.6 -19.7,-3 -8.1,-0.5 -16.2,-0.2 -24.3,0.8 -14.3,1.8 -27.2,6.6 -38.8,14.3 -12.9,8.6 -23.6,20.1 -32,34.4 -5.4,9.2 -9,17.9 -10.7,26.2 -3.6,17.5 -3.3,35.2 0.9,53.2 1.5,6.5 3.8,12.8 6.7,19 7.8,16.4 19.2,29.3 34.3,38.7 7.7,4.8 15,8.3 21.8,10.6 7.5,2.5 16.5,4.2 27.1,5.2 5.8,0.5 11.8,0.4 18,-0.5 8.4,-1.1 14.3,-2.3 17.8,-3.6 7.6,-2.7 13.3,-5.1 17,-7.2 27.6,-15.5 43.3,-39.1 47.2,-70.8 0.9,-7.3 1.1,-15.5 0.6,-24.6 0,-1.2 -0.5,-2.7 -1.4,-4.5 -1.1,-2.1 -2.7,-3.2 -5,-3.2 -31.3,0.1 -60.8,0.2 -88.6,0 -2,0 -3,1 -3.1,3 -0.3,14.2 -0.3,26.4 0,36.7 0,2.4 1.5,3.7 4.3,3.7 12,0 23.5,-0.2 34.5,-0.3 0.2,0 0.4,0.2 0.4,0.4 z m 110.4,-113.8 c -13.3,9.3 -25.4,22.8 -32.6,37.2 -4.9,9.8 -8.3,20.3 -10.3,31.5 -0.7,3.7 -1,8.2 -1,13.3 0,9.2 0,16.4 1.9,24.8 5.4,22.9 17.8,42.7 36.2,57.1 18.9,14.7 41,21.8 66.5,21.2 11.8,-0.2 23.5,-2.7 35.1,-7.3 19.6,-7.9 35.2,-20.3 47,-37.4 9.4,-13.7 14.7,-29.4 16,-47.3 1.6,-22.1 -3.3,-46.1 -15.9,-64.4 -6,-8.7 -13.2,-16.7 -21.6,-23.9 -7.8,-6.8 -16.5,-12.1 -26,-15.9 -12.5,-5 -25,-6.6 -39,-6.6 -20.8,0 -39.5,5.9 -56.3,17.7 z m -559.9,75 c 0.8,-0.7 2.2,-1.7 4.2,-3.3 5.9,-4.6 10,-11.1 12,-18.2 3.3,-11.7 2.7,-23.4 -2,-35 -6.6,-16.5 -22.2,-28.3 -39.2,-31.8 -3.9,-0.8 -10.6,-1.3 -19.9,-1.3 -17.2,0 -41.4,0 -72.7,0 -1.7,0 -2.9,0.3 -3.4,0.8 -0.8,0.9 -1.6,1.7 -2.5,2.5 -0.2,0.2 -0.4,0.5 -0.4,0.9 -0.5,90.5 -0.7,152.6 -0.6,186.2 0,1.5 1,3.3 2.9,5.5 0.2,0.3 0.5,0.4 0.9,0.5 1.1,0.1 2.7,0.2 4.8,0.2 27.3,0 53.7,0 79.2,0 5.9,0 11.3,-0.5 16.2,-1.4 9.9,-1.8 18.9,-5.6 27,-11.5 12.1,-8.7 19,-20.7 20.7,-35.8 2.4,-21 -4.5,-41.3 -22.7,-53.2 -0.9,-0.6 -2.5,-1.6 -4.5,-2.9 -0.6,-0.4 -0.8,-1.2 -0.4,-1.8 0,-0.1 0.2,-0.2 0.3,-0.3 z m 100.8,-84 c 0,-3.1 -2.5,-5.6 -5.7,-5.6 H 649 c -3.1,0 -5.6,2.6 -5.6,5.7 v 0 c 0,0 0.3,185.2 0.3,185.2 0,3.1 2.5,5.6 5.7,5.6 h 41.7 c 3.1,0 5.6,-2.6 5.6,-5.7 v 0 z m 142.3,99.2 c 0,1.4 -0.4,1.5 -1.1,0.3 -2,-3.1 -3.9,-6.2 -5.6,-9.2 -3,-5.3 -4.7,-8.3 -5.2,-9.1 -3.5,-5.7 -7,-11.3 -10.4,-17 -24.9,-40.6 -38.2,-62.3 -39.9,-65.2 -0.4,-0.7 -1.3,-1.7 -2.7,-3.1 -1.7,-1.7 -3.5,-1.5 -6,-1.5 -10.3,0 -22.5,0 -36.8,0 -1.3,0 -2.6,0 -3.8,0.2 -0.3,0 -0.6,0.2 -0.8,0.4 l -2.5,2.9 c -0.2,0.3 -0.3,0.6 -0.3,0.9 0,48.9 -0.1,108.9 -0.1,180 0,1.3 0,3.9 0.2,7.7 0,0.3 0.1,0.6 0.4,0.9 l 2.7,2.6 c 0.2,0.3 0.5,0.4 0.9,0.5 1,0.2 1.5,0.2 1.6,0.2 0.7,0 12.4,0 35,0 2.8,0 5.2,0 7,-0.1 1.6,0 2.9,-0.5 3.7,-1.4 1.3,-1.4 2,-3.2 2,-5.4 0,-29 -0.1,-61 -0.3,-96.1 0,-1.5 0.5,-1.7 1.4,-0.5 1.4,1.8 2.8,3.8 4.1,6 21.6,35.6 39.5,65.4 53.5,89.7 1.6,2.7 3,5 4.3,6.8 0.6,0.8 1.5,1.3 2.5,1.3 19.7,0 34.3,0 43.8,0 1.4,0 3.4,-0.4 4.2,-1.8 1.2,-2 1.8,-4.2 1.8,-6.8 -0.4,-53.5 -0.6,-112.5 -0.6,-177 0,-1.5 0.2,-4.7 -1,-6.4 -0.9,-1.3 -2,-2.3 -3.1,-3 -1,-0.6 -2.3,-0.9 -4,-0.9 -6.1,0 -19.2,0 -39,0 -1.7,0 -3,0.4 -3.9,1.1 -1.3,1.1 -1.9,2.4 -1.9,4 -0.2,34.2 -0.2,67.3 0,99.2 z"
               id="path8" />
            <path class="cls-4"
               d="m 379.5,1116 c 0,-0.5 0.4,-0.8 0.9,-0.8 h 23.9 c 8.2,-0.1 14.8,6.4 14.8,14.5 v 0 0.6 c 0,8.1 -6.6,14.7 -14.8,14.7 h -23.9 c -0.5,0 -0.9,-0.3 -0.9,-0.8 z"
               id="path9" />
            <path class="cls-4"
               d="m 379.8,1186.8 c 0,-0.4 0.3,-0.7 0.7,-0.7 h 28.3 c 8.5,-0.1 15.4,6.7 15.4,15.2 v 0.6 c 0,8.5 -6.8,15.4 -15.3,15.4 h -28.3 c -0.4,0 -0.7,-0.2 -0.7,-0.6 v -30 z"
               id="path10" />
            <path class="cls-4"
               d="m 523.8,1357.1 c 0,-0.4 0.4,-0.8 0.8,-0.8 h 23.3 c 8.5,0 15.4,6.8 15.4,15 v 0.5 c 0,8.3 -6.9,14.9 -15.4,14.9 h -23.3 c -0.4,0 -0.8,-0.4 -0.8,-0.8 v 0 z"
               id="path11" />
            <path class="cls-4"
               d="m 1214.6,1458.3 c -26.5,0.8 -48.6,-20.3 -49.5,-47.2 -0.8,-26.9 19.9,-49.4 46.4,-50.3 26.5,-0.9 48.6,20.3 49.5,47.2 0.9,26.9 -19.9,49.4 -46.4,50.3 z"
               id="path12" />
            <path class="cls-4"
               d="m 523.9,1430.3 c 0,-0.3 0.3,-0.6 0.6,-0.6 h 28.4 c 8.6,0 15.6,6.7 15.6,15.1 v 0 1 c 0,8.4 -7,15.2 -15.6,15.2 h -28.4 c -0.3,0 -0.6,-0.2 -0.6,-0.5 v 0 z"
               id="path13" />
         </g>
         <g id="g22">
            <path class="cls-5"
               d="m 1045.1,1439.3 c 0,-0.2 0,-0.4 -0.3,-0.4 0,0 0,0 0,0 -11,0.2 -22.6,0.3 -34.5,0.3 -2.8,0 -4.3,-1.2 -4.3,-3.7 -0.3,-10.3 -0.3,-22.5 0,-36.7 0,-2 1.1,-3 3.1,-3 27.8,0.1 57.4,0.1 88.6,0 2.2,0 3.9,1.1 5,3.2 0.9,1.8 1.4,3.2 1.4,4.5 0.5,9.1 0.3,17.3 -0.6,24.6 -3.9,31.7 -19.7,55.3 -47.2,70.8 -3.8,2.1 -9.4,4.5 -17,7.2 -3.5,1.2 -9.4,2.4 -17.8,3.6 -6.3,0.8 -12.3,1 -18,0.5 -10.5,-1 -19.5,-2.7 -27.1,-5.2 -6.8,-2.2 -14,-5.7 -21.8,-10.6 -15.1,-9.4 -26.5,-22.3 -34.3,-38.7 -2.9,-6.2 -5.2,-12.5 -6.7,-19 -4.2,-18 -4.6,-35.7 -0.9,-53.2 1.7,-8.3 5.3,-17.1 10.7,-26.2 8.4,-14.3 19.1,-25.7 32,-34.4 11.5,-7.7 24.5,-12.5 38.8,-14.3 8.1,-1 16.2,-1.3 24.3,-0.8 7.5,0.4 14,1.4 19.7,3 15.7,4.3 29.7,12.3 42.1,24 5.3,5 9.2,9.4 11.8,13.2 2.8,4.2 4.4,6.6 4.9,7.2 0.2,0.3 0.1,0.5 -0.2,0.7 -1.8,1 -5.3,3.1 -10.5,6.4 -7.8,5 -19.7,12.6 -35.7,22.7 -0.4,0.3 -0.9,0.2 -1.3,0 -4.5,-3.4 -6.1,-9.1 -10.2,-12.7 -5.7,-5.1 -11.4,-8.5 -17.1,-10.2 -12.2,-3.7 -23.8,-2.1 -34.8,4.6 -12.3,7.4 -19.8,18.1 -22.6,32.2 -1.4,7 -1.3,14.6 0.3,22.6 1.5,7.2 4.6,13.9 9.4,20.2 4,5.2 9,9.3 14.9,12.4 9.5,4.9 20.6,6.9 31.1,4.4 10.3,-2.4 18.4,-8.4 24.4,-17.9 0.2,-0.3 0.3,-0.7 0.5,-1.3 z"
               id="path18" />
            <path class="cls-5"
               d="m 1122.9,1362.6 c 7.2,-14.4 19.3,-27.8 32.6,-37.2 16.8,-11.8 35.5,-17.7 56.3,-17.7 14,0 26.5,1.6 39,6.6 9.5,3.8 18.2,9.1 26,15.9 8.4,7.3 15.6,15.2 21.6,23.9 12.6,18.3 17.5,42.3 15.9,64.4 -1.3,17.8 -6.6,33.6 -16,47.3 -11.7,17.1 -27.4,29.6 -47,37.4 -11.6,4.6 -23.3,7.1 -35.1,7.3 -25.5,0.5 -47.6,-6.6 -66.5,-21.2 -18.4,-14.4 -30.8,-34.2 -36.2,-57.1 -2,-8.5 -2,-15.6 -1.9,-24.8 0,-5.1 0.3,-9.5 1,-13.3 2,-11.2 5.4,-21.7 10.3,-31.5 z m 91.7,95.7 c 26.5,-0.8 47.2,-23.3 46.4,-50.3 -0.8,-27 -23,-48.1 -49.5,-47.2 -26.5,0.9 -47.2,23.3 -46.4,50.3 0.8,26.9 23,48.1 49.5,47.2 z"
               id="path19" />
            <path class="cls-5"
               d="m 595.6,1400.5 c -0.6,0.4 -0.6,1.3 -0.2,1.8 0,0.1 0.2,0.2 0.3,0.3 2.1,1.3 3.6,2.3 4.5,2.9 18.1,11.9 25.1,32.1 22.7,53.2 -1.7,15.1 -8.7,27.1 -20.7,35.8 -8.1,5.9 -17.1,9.7 -27,11.5 -4.9,0.9 -10.3,1.3 -16.2,1.4 -25.5,0.1 -52,0.2 -79.2,0 -2.1,0 -3.6,0 -4.8,-0.2 -0.3,0 -0.6,-0.2 -0.9,-0.5 -1.9,-2.1 -2.9,-4 -2.9,-5.5 -0.2,-33.6 0,-95.7 0.6,-186.2 0,-0.3 0.2,-0.6 0.4,-0.9 0.9,-0.8 1.7,-1.6 2.5,-2.5 0.5,-0.5 1.6,-0.8 3.4,-0.8 31.3,0 55.5,0 72.7,0 9.3,0 16,0.5 19.9,1.3 17,3.6 32.6,15.4 39.2,31.8 4.6,11.6 5.3,23.2 2,35 -2,7.1 -6.1,13.6 -12,18.2 -2,1.5 -3.4,2.6 -4.2,3.3 z m -71.8,-43.4 v 28.8 c 0,0.4 0.3,0.8 0.7,0.8 h 23.3 c 8.5,0 15.4,-6.6 15.5,-14.9 v 0 -0.5 c 0,-8.3 -6.9,-15 -15.4,-15 h -23.3 c -0.4,0 -0.8,0.3 -0.8,0.8 z m 0.1,73.2 v 30.2 c 0,0.3 0.3,0.6 0.7,0.6 H 553 c 8.6,0 15.6,-6.9 15.6,-15.3 v -1 c 0,-8.4 -7,-15.2 -15.6,-15.2 h -28.4 c -0.3,0 -0.6,0.3 -0.6,0.7 v 0 z"
               id="path20" />
            <path class="cls-5"
               d="m 696.7,1501.7 c 0,3.1 -2.5,5.7 -5.6,5.7 h -41.7 c -3.1,0 -5.7,-2.4 -5.7,-5.6 v 0 l -0.3,-185.2 c 0,-3.1 2.5,-5.7 5.6,-5.7 h 41.7 c 3.1,0 5.7,2.4 5.7,5.6 v 0 z"
               id="path21" />
            <path class="cls-5"
               d="m 838.7,1415.7 c -0.2,-31.9 -0.2,-64.9 0,-99.2 0,-1.6 0.7,-2.9 1.9,-4 0.9,-0.7 2.2,-1.1 3.9,-1.1 19.9,0 32.9,0 39,0 1.7,0 3,0.3 4,0.9 1.1,0.7 2.2,1.7 3.1,3 1.2,1.7 1,4.9 1,6.4 0,64.5 0.2,123.5 0.6,177 0,2.6 -0.6,4.9 -1.8,6.8 -0.9,1.4 -2.9,1.8 -4.2,1.8 -9.5,0 -24.1,0 -43.8,0 -1,0 -1.9,-0.5 -2.5,-1.3 -1.3,-1.8 -2.7,-4 -4.3,-6.8 -14.1,-24.2 -31.9,-54.1 -53.5,-89.7 -1.3,-2.2 -2.7,-4.2 -4.1,-6 -0.9,-1.2 -1.4,-1 -1.4,0.5 0.2,35 0.3,67.1 0.3,96.1 0,29 -0.7,4.1 -2,5.4 -0.8,0.9 -2.1,1.3 -3.7,1.4 -1.8,0 -4.1,0.1 -7,0.1 -22.6,0 -34.3,0 -35,0 -0.1,0 -0.7,0 -1.6,-0.2 -0.3,0 -0.6,-0.2 -0.9,-0.5 l -2.7,-2.6 c -0.2,-0.2 -0.4,-0.5 -0.4,-0.9 -0.2,-3.8 -0.2,-6.4 -0.2,-7.7 0,-71.1 0,-131 0.1,-180 0,-0.3 0.1,-0.6 0.3,-0.9 l 2.5,-2.9 c 0.2,-0.2 0.5,-0.4 0.8,-0.4 1.2,-0.1 2.5,-0.2 3.8,-0.2 14.2,0 26.5,0 36.8,0 2.5,0 4.3,-0.1 6,1.5 1.4,1.4 2.3,2.4 2.7,3.1 1.7,2.8 15,24.5 39.9,65.2 3.5,5.7 7,11.3 10.4,17 0.5,0.8 2.2,3.8 5.2,9.1 1.7,3.1 3.6,6.2 5.6,9.2 0.7,1.1 1.1,1 1.1,-0.3 z"
               id="path22" />
         </g>
         <g id="g34">
            <path class="cls-3"
               d="m 968.8,1116.6 c -6.6,3.9 -8.7,14 -1.3,18.4 2.3,1.4 5.9,2.8 10.9,4.2 13.8,3.9 21.6,6.1 23.4,6.6 7.2,2 14.5,4.8 21.7,8.3 6.8,3.3 12.3,7.1 16.4,11.3 8.6,8.8 13.8,19 15.4,30.7 2.9,20.8 -3.1,37.7 -18.1,50.8 -20,17.5 -44.6,21.2 -70.4,17.4 -14.5,-2.1 -29,-8.2 -39.5,-18.6 -10.9,-10.7 -16.5,-23.4 -17,-38.2 0,-1.9 0.3,-3.9 1,-6 1.3,-3.6 2.8,-4.3 6.5,-4.4 17.8,-0.2 30.5,-0.2 38.1,-0.1 2.1,0 3.6,0.3 4.5,0.8 2.5,1.4 4.1,3 4.8,5.9 0.2,1 0.5,2 0.8,3 2.7,9.8 12.9,13.1 22.2,12.1 5.5,-0.6 10.1,-2.7 12.6,-7.7 2.7,-5.5 1.5,-10.5 -3.8,-15 -0.7,-0.6 -2.6,-1.8 -5.8,-3.5 -4.2,-2.3 -8.4,-3.2 -14.1,-4.8 -11.7,-3.4 -19.7,-5.7 -24.1,-7.2 -2.7,-0.9 -5.4,-2 -8,-3.2 -3.4,-1.7 -6,-2.9 -7.7,-3.8 -22.8,-11.8 -32.1,-39.6 -23.8,-63.3 4.5,-12.8 12.3,-22.8 23.6,-29.9 6.8,-4.3 15.1,-7.3 24.9,-9.1 10.2,-1.8 20.8,-2 31.9,-0.5 9.1,1.3 17.9,4.3 26.3,9.2 14.3,8.4 23.9,20.7 28.5,36.9 1.1,3.8 2.8,10.8 -0.9,13.4 -0.9,0.7 -2.4,1 -4.5,1 -21,-0.1 -33.8,-0.1 -38.4,-0.1 -4.6,0 -7.1,-2.2 -7.5,-6.5 0,-0.9 -0.5,-2.1 -1.4,-3.8 -2.2,-4.2 -7.8,-6.7 -12.2,-7.1 -6.1,-0.5 -11.2,0.4 -15,2.7 z"
               id="path27" />
            <path class="cls-3"
               d="m 451.3,1159.7 c 0,0.7 0.5,1.4 1.4,2.1 5.5,4.3 11.9,9.7 15.6,15.8 9.2,15.1 11.1,31 5.6,47.8 -5,15.3 -18.7,27.7 -33.9,32.8 -10.7,3.6 -19.1,3.4 -32.8,3.4 -45.6,0 -69.6,0 -72,0 -2.2,0 -4,-0.9 -5.4,-2.6 -0.9,-1.1 -1.4,-2.4 -1.4,-3.8 0.2,-103.1 0.2,-162.3 0.1,-177.4 0,-0.3 0,-0.7 0.2,-1 0.9,-1.8 2.2,-3.2 3.9,-4.1 1,-0.6 2.7,-0.9 5.2,-0.9 45,0 71.1,0 78.3,0 6.1,0 12.4,1.5 19,4.4 7.9,3.5 14.6,8.1 19.9,13.9 11.7,12.7 14.9,28.6 11.7,45.2 -0.9,4.7 -2.6,8.8 -5.1,12.1 -2.8,3.7 -5.9,7 -9.3,9.9 -0.7,0.6 -1.1,1.4 -1.1,2.3 z M 379.5,1116 v 28.2 c 0.1,0.5 0.5,0.8 1,0.8 h 23.9 c 8.2,-0.1 14.8,-6.7 14.8,-14.8 v -0.6 c 0,-8.1 -6.7,-14.6 -14.8,-14.6 h -23.9 c -0.5,0 -0.9,0.5 -0.9,0.9 z m 0.3,70.8 v 30 c 0.1,0.4 0.4,0.7 0.8,0.7 h 28.3 c 8.5,-0.1 15.3,-7 15.3,-15.5 0,0 0,0 0,0 v -0.6 c 0,-8.5 -6.9,-15.3 -15.4,-15.3 h -28.3 c -0.4,0 -0.7,0.4 -0.7,0.8 z"
               id="path28" />
            <path class="cls-3"
               d="m 578.7,1209.7 c 4.1,-4.7 5.3,-10 5.3,-16.7 0.1,-46.4 0.1,-84.5 0,-114.2 0,-2.3 0.4,-3.9 1.2,-4.9 1.2,-1.4 2.9,-2.1 5.2,-2.1 17.5,0 29.8,-0.1 37.1,0 2.8,0 4.7,0.4 5.9,1.1 2,1.2 3,3.2 3,5.9 0,7.4 0.2,38.2 0.6,92.5 0,13.8 -0.1,24.6 -0.7,32.3 -0.3,4.4 -1.2,9.2 -2.8,14.7 -5.3,18.5 -17.9,32.7 -35.6,40.6 -17.3,7.8 -35.2,8.6 -54,5.3 -17.2,-3 -32.9,-11.4 -43.4,-25.8 -7,-9.6 -11.2,-19.8 -12.7,-30.8 -0.6,-4.8 -0.9,-10.6 -0.9,-17.4 0,-23.6 0,-60.9 0,-111.7 0,-2.1 0.4,-3.4 1.1,-4 1.9,-1.6 2.6,-2.6 5.6,-2.6 15.3,0 28.2,0 38.5,-0.2 2.6,0 3.5,1.1 5.4,2.5 1.5,1.2 1.4,4.6 1.4,6.8 0.1,56.6 0.2,91.8 0,105.8 0,6.7 0,12.6 2.9,18.6 1.9,4 4.8,6.7 8.8,8.3 8.1,3.1 21.5,3.2 27.7,-4 z"
               id="path29" />
            <path class="cls-3"
               d="m 706.9,1214.4 c 0,0.3 0.2,0.5 0.5,0.5 23.5,0 44.9,0.1 64.1,0 1.1,0 2.3,0.2 3.2,1 2,1.8 3,4.3 3,7.6 0,9 0,19.7 0,31.9 0,1.8 -0.4,3.1 -1.1,3.8 -1,0.9 -2,1.7 -3.1,2.4 -0.4,0.3 -1.7,0.4 -3.6,0.4 -38.2,-0.1 -73.4,0 -105.9,0.2 -1.3,0 -2.3,0 -3.1,-0.3 -1.9,-0.4 -2.9,-1.8 -4.6,-3.5 -0.3,-0.3 -0.6,-0.7 -0.6,-1.2 -0.2,-1.3 -0.2,-2.8 -0.2,-4.7 0,-64.4 0,-122.4 0,-174 0,-1.2 0,-2.2 0.7,-3.2 1.6,-2.3 3.8,-3.4 6.6,-3.4 1,0 13.7,0 38.1,0 3.2,0 5.7,2.5 5.7,5.7 0.1,62.3 0.2,104.8 0.2,127.5 0,3.2 0,6.3 0.2,9.4 z"
               id="path30" />
            <path class="cls-3"
               d="m 836.8,1214.3 c 0,0.3 0.3,0.5 0.6,0.5 22.2,0 43.1,0 62.6,0.1 0.2,0 0.7,0 1.3,0.1 1.8,0.2 3.9,2.9 4.7,4.4 0.5,0.9 0.7,2.5 0.7,4.7 0,16.9 0,27.2 0,31 0,2.5 -0.9,4.5 -2.9,6.1 -0.3,0.2 -0.6,0.3 -0.9,0.3 -1.8,0.1 -3.5,0.2 -5.3,0.2 -3.3,0 -39,0 -107.2,0 -2.1,0 -3.1,-1.5 -4.8,-3.4 -0.2,-0.2 -0.4,-0.5 -0.4,-0.9 -0.2,-1.1 -0.3,-2.1 -0.3,-2.8 0.2,-50.4 0.3,-109.4 0.2,-177.2 0,-1.9 0.7,-3.4 2.2,-4.6 0.9,-0.7 2.4,-1.1 4.4,-1 5.7,0 17.9,0 36.5,0 2.4,0 4.1,0.2 5.1,0.7 2,0.9 3,2.5 3,4.9 0.1,34.3 0.1,79.5 0,135.7 0,0.2 0,0.6 0.2,1.2 z"
               id="path31" />
            <path class="cls-3"
               d="m 1168.3,1185 c 0,-0.2 -0.2,-0.3 -0.3,-0.3 h -48.3 c -0.2,0 -0.4,0.2 -0.4,0.4 v 71.2 c 0,3 -2.4,5.5 -5.5,5.5 -8.8,0 -21.6,0 -38.3,0 -3.3,0 -5.1,-0.5 -7,-2.8 -0.5,-0.6 -0.8,-1.6 -0.8,-3 0.2,-90 0.3,-149.4 0.2,-178.2 0,-2.2 0.7,-3.8 2.1,-4.8 0.9,-0.7 2.4,-1 4.6,-1 13.1,0 26.2,0 39.3,0 1.1,0 2.4,0.7 3.8,2.2 0.7,0.8 1.1,1.8 1.2,3.2 0,1.7 0.1,2.8 0.1,3.5 0,20.6 0,39.8 -0.1,57.5 0,0.2 0.1,0.3 0.3,0.3 h 48.7 c 0.4,0 0.5,-0.2 0.5,-0.5 -0.1,-9.3 -0.2,-29.4 -0.2,-60.5 0,-1 0,-2.4 0.8,-3.2 1.9,-1.6 2.7,-2.7 5.5,-2.6 12.4,0 25.9,0 40.6,0 2.5,0 4.5,1.9 4.7,4.4 0.2,4 0.3,8.1 0.3,12.2 0,19.4 0,75.6 0.1,168.6 0,2.6 -2.1,4.7 -4.7,4.7 h -41.6 c -3,0 -5.5,-2.5 -5.5,-5.5 V 1185 Z"
               id="path32" />
            <path class="cls-3"
               d="m 1292.9,1256.1 c 0,3.1 -2.6,5.7 -5.7,5.7 h -40.3 c -3.1,0 -5.7,-2.6 -5.7,-5.7 v -178.3 c 0,-3.1 2.6,-5.7 5.7,-5.7 h 40.3 c 3.1,0 5.7,2.6 5.7,5.7 v 0 z"
               id="path33" />
            <path class="cls-3"
               d="m 1399.5,1117.7 c 0,48.7 0,93.5 0.2,134.3 0,2.8 0,4.2 0,4.3 -0.2,1.6 -0.8,3 -1.7,4.1 -0.6,0.7 -1.2,1.1 -2,1.1 -6.8,0.2 -20,0.2 -39.7,0.1 -1.7,0 -3,-0.2 -3.9,-0.7 -0.8,-0.4 -2,-1.2 -3.7,-2.4 -0.3,-0.2 -0.5,-0.6 -0.5,-1 v -138.9 c 0,-1 -0.5,-1.6 -1.6,-1.6 -11,0 -23.8,0.1 -38.5,0.1 -2.2,0 -3.8,-0.5 -4.7,-1.3 -1.3,-1.2 -1.9,-3 -2,-5.5 0,-6.4 0,-17.1 0,-32 0,-2.1 0.3,-3.5 0.8,-4.3 0.9,-1.3 2.4,-2 4.5,-2 41.7,0 85.5,-0.1 131.2,-0.2 4.6,0 6.9,2.2 6.9,6.6 0,9.3 0,19.5 0,30.5 0,3.1 -0.8,5.6 -2.4,7.4 -0.2,0.2 -0.5,0.4 -0.8,0.5 -0.6,0.1 -1.4,0.2 -2.5,0.2 -13.9,0 -27,0 -39.4,0.1 -0.4,0 -0.5,0.2 -0.5,0.6 z"
               id="path34" />
         </g>
      </g>
   </g>
</svg>